# xmcd
#
# Track frame offsets:
#	150
#	10214
#	24122
#	42478
#	50688
#	63166
#	77827
#	89697
#	101753
#	113563
#
# Disc length: 1690 seconds
#
# Revision: 1
# Processed by: cddbd v1.5PL3 Copyright (c) Steve Scherf et al.
# Submitted via: audiograbber 1.80.04
#
DISCID=7806980a
DTITLE=Jimmy Walker - Honky Tonk Tired
DYEAR=1900
DGENRE=Country
TTITLE0=Wiskey Blues
TTITLE1=Dan
TTITLE2=Old Pictures And Memories Of You
TTITLE3=Can't Live (Another Day Like This)
TTITLE4=Night Time Places
TTITLE5=Oregon Rain
TTITLE6=Words Of A Fool
TTITLE7=Wiskey Versus Heartache
TTITLE8=Honky Tonk Tired
TTITLE9=The Winning Hand
EXTD=
EXTT0=
EXTT1=
EXTT2=
EXTT3=
EXTT4=
EXTT5=
EXTT6=
EXTT7=
EXTT8=
EXTT9=
PLAYORDER=
